<svg version="1.1"
      xmlns="http://www.w3.org/2000/svg"
      xmlns:xlink="http://www.w3.org/1999/xlink"  id="snapshot-78214" width="250" height="250" viewBox="0 0 250 250"><desc>This image was made on Patterninja.com</desc><defs>
<!-- image 58110 -->
<g id="transformed-58110" data-image="58110" transform="translate(46.26486322958873, 71.26486322958874) rotate(342, 35.73513677041127, 35.73513677041125)"><g><svg version="1.1" width="71.47027354082255px" height="71.4702735408225px" viewBox="0 0 71.47027354082255 71.4702735408225"><g id="original-58110"><svg xmlns="http://www.w3.org/2000/svg" viewBox="0 0 1056.084 1056.084" xmlns:xlink="http://www.w3.org/1999/xlink" version="1.1" preserveAspectRatio="xMidYMid meet">
  <path d="M1003.28 387.231H369.63c-9.721 0-17.601 7.88-17.601 17.601v70.406c0 9.721 7.88 17.601 17.601 17.601h107.369c-66.733 41.753-107.295 114.897-107.369 193.615v211.217c0 9.721 7.88 17.601 17.601 17.601H246.42V246.42h352.028v88.007c0 9.721 7.88 17.601 17.601 17.601h70.406c9.721 0 17.601-7.88 17.601-17.601V246.42h334.427c9.721 0 17.601-7.88 17.601-17.601C1055.938 102.506 953.578.145 827.266 0H17.601C7.88 0 0 7.88 0 17.601v1020.881c0 9.721 7.88 17.601 17.601 17.601h950.476c9.721 0 17.601-7.88 17.601-17.601V932.874c0-9.721-7.88-17.601-17.601-17.601h-52.804c9.721 0 17.601-7.88 17.601-17.601V686.455c-.074-78.718-40.636-151.863-107.369-193.615h124.97v158.413c0 9.721 7.88 17.601 17.601 17.601h70.406c9.721 0 17.601-7.88 17.601-17.601V440.035c.001-29.163-23.64-52.804-52.803-52.804zm-334.427-70.406H633.65V246.42h35.203v70.405zm281.622 633.65v70.406H35.203V35.203h792.063c100.066.119 183.603 76.374 192.823 176.014H228.818c-9.721 0-17.601 7.88-17.601 17.601v704.056c0 9.721 7.88 17.601 17.601 17.601h721.657zm-52.804-264.02V880.07H404.832V686.455c.126-106.879 86.737-193.489 193.615-193.615h105.608c106.879.125 193.49 86.736 193.616 193.615zm123.21-52.805h-35.203V475.238c0-9.721-7.88-17.601-17.601-17.601H387.231v-35.203h616.049c9.721 0 17.601 7.88 17.601 17.601V633.65z" fill="rgba(0, 0, 0, 0.1)" stroke="none"/>
  <path d="M123.21 228.818c-29.163 0-52.804 23.641-52.804 52.804 0 29.163 23.641 52.804 52.804 52.804s52.804-23.641 52.804-52.804c0-29.163-23.641-52.804-52.804-52.804zm0 70.406c-9.721 0-17.601-7.88-17.601-17.601s7.88-17.601 17.601-17.601 17.601 7.88 17.601 17.601-7.88 17.601-17.601 17.601z" fill="rgba(0, 0, 0, 0.1)" stroke="none"/>
  <path d="M123.21 369.629c-29.163 0-52.804 23.641-52.804 52.804 0 29.163 23.641 52.804 52.804 52.804s52.804-23.641 52.804-52.804c0-29.162-23.641-52.804-52.804-52.804zm0 70.406c-9.721 0-17.601-7.88-17.601-17.601s7.88-17.601 17.601-17.601 17.601 7.88 17.601 17.601-7.88 17.601-17.601 17.601z" fill="rgba(0, 0, 0, 0.1)" stroke="none"/>
</svg>
</g></svg></g></g>
<!-- /image 58110 -->

<!-- image 92707 -->
<g id="transformed-92707" data-image="92707" transform="translate(110.98387516145836, 203.98387516145837) rotate(20, 31.016124838541646, 31.016124838541632)"><g><svg version="1.1" width="62.03224967708329px" height="62.032249677083264px" viewBox="0 0 62.03224967708329 62.032249677083264"><g id="original-92707"><svg xmlns="http://www.w3.org/2000/svg" viewBox="0 0 1056.084 1056.084" xmlns:xlink="http://www.w3.org/1999/xlink" version="1.1" preserveAspectRatio="xMidYMid meet">
  <path d="M633.65 880.07h-70.406v35.203h88.007c9.721 0 17.601-7.88 17.601-17.601v-88.007H633.65v70.405z" fill="rgba(0, 0, 0, 0.1)" stroke="none"/>
  <path d="M897.671 246.42H739.259v-17.601c0-9.721-7.88-17.601-17.601-17.601H88.007c-9.721 0-17.601 7.88-17.601 17.601v704.056c.092 22.297 14.181 42.133 35.203 49.566v20.84c0 29.163 23.641 52.804 52.804 52.804h492.839c29.163 0 52.804-23.641 52.804-52.804v-20.84c21.022-7.432 35.11-27.268 35.203-49.566V633.65h158.413c48.581-.058 87.949-39.426 88.007-88.007V334.427c-.059-48.581-39.427-87.949-88.008-88.007zM739.259 352.028h123.21c9.721 0 17.601 7.88 17.601 17.601V510.44c0 9.721-7.88 17.601-17.601 17.601h-123.21V352.028zm-70.406 651.252c0 9.721-7.88 17.601-17.601 17.601H158.413c-9.721 0-17.601-7.88-17.601-17.601v-17.601h528.042v17.601zm35.203-70.406c0 9.721-7.88 17.601-17.601 17.601H123.21c-9.721 0-17.601-7.88-17.601-17.601V246.42h598.448v686.454zm246.419-387.231c0 29.163-23.641 52.804-52.804 52.804H739.259v-35.203h123.21c29.163 0 52.804-23.641 52.804-52.804V369.629c0-29.163-23.641-52.804-52.804-52.804h-123.21v-35.203h158.413c29.163 0 52.804 23.641 52.804 52.804v211.217z" fill="rgba(0, 0, 0, 0.1)" stroke="none"/>
  <path d="M373.15 176.014h35.203c0-7.234 2.359-10.05 9.188-17.161 22.942-19.868 25.433-54.572 5.565-77.514a54.954 54.954 0 0 0-5.565-5.565c-6.829-7.041-9.188-9.927-9.188-17.161s2.359-10.015 9.17-17.109A55.394 55.394 0 0 0 436.515 0h-35.203c0 7.199-2.359 10.015-9.17 17.109-22.932 19.835-25.442 54.504-5.608 77.436a54.98 54.98 0 0 0 5.608 5.608c6.829 7.041 9.188 9.927 9.188 17.161s-2.359 10.05-9.188 17.161a55.458 55.458 0 0 0-18.992 41.539z" fill="rgba(0, 0, 0, 0.1)" stroke="none"/>
  <path d="M270.357 176.014h35.203c0-4.26 1.038-5.72 6.354-11.247 19.69-17.252 21.666-47.199 4.414-66.889a47.395 47.395 0 0 0-4.414-4.414c-5.052-5.28-6.372-6.829-6.372-11.3s1.32-6.037 6.372-11.3a48.016 48.016 0 0 0 16.176-35.66h-35.203c0 4.471-1.32 6.037-6.372 11.3-19.695 17.276-21.656 47.246-4.38 66.941a47.4 47.4 0 0 0 4.38 4.38c5.052 5.28 6.372 6.829 6.372 11.3 0 4.471-1.038 5.72-6.354 11.247a47.911 47.911 0 0 0-16.176 35.642z" fill="rgba(0, 0, 0, 0.1)" stroke="none"/>
  <path d="M481.574 176.014h35.203c0-4.26 1.039-5.72 6.354-11.247 19.69-17.252 21.666-47.199 4.414-66.889a47.395 47.395 0 0 0-4.414-4.414c-5.052-5.28-6.372-6.829-6.372-11.3s1.32-6.037 6.372-11.3a48.016 48.016 0 0 0 16.176-35.66h-35.203c0 4.471-1.32 6.037-6.372 11.3-19.695 17.276-21.656 47.246-4.38 66.941a47.4 47.4 0 0 0 4.38 4.38c5.052 5.28 6.372 6.829 6.372 11.3 0 4.471-1.038 5.72-6.354 11.247a47.908 47.908 0 0 0-16.176 35.642z" fill="rgba(0, 0, 0, 0.1)" stroke="none"/>
</svg>
</g></svg></g></g>
<!-- /image 92707 -->

<!-- image 59191 -->
<g id="transformed-59191" data-image="59191" transform="translate(172.28689008458048, 88.28689008458043) rotate(11, 34.71310991541954, 34.713109915419565)"><g><svg version="1.1" width="69.42621983083907px" height="69.42621983083913px" viewBox="0 0 69.42621983083907 69.42621983083913"><g id="original-59191"><svg xmlns="http://www.w3.org/2000/svg" viewBox="0 0 1056.238 1056.238" xmlns:xlink="http://www.w3.org/1999/xlink" version="1.1" preserveAspectRatio="xMidYMid meet">
  <path d="M880.147 950.629h-76.672a158.113 158.113 0 0 0 59.07-123.21V510.594c0-9.721-7.88-17.601-17.601-17.601H316.902c-9.721 0-17.601 7.88-17.601 17.601v17.601h-52.804c-68.047 0-123.21 55.163-123.21 123.21s55.163 123.21 123.21 123.21h52.804v52.804a158.116 158.116 0 0 0 59.07 123.21h-76.672c-29.163 0-52.804 23.641-52.804 52.804 0 29.163 23.641 52.804 52.804 52.804h598.448c29.163 0 52.804-23.641 52.804-52.804 0-29.162-23.641-52.804-52.804-52.804zM246.496 739.412c-48.605 0-88.007-39.402-88.007-88.007 0-48.605 39.402-88.007 88.007-88.007H299.3v176.014h-52.804zm88.007 88.007V528.196h492.839V827.42c-.078 68.015-55.195 123.132-123.21 123.21h-246.42c-68.014-.078-123.131-55.196-123.209-123.211zm545.644 193.616H281.699c-9.721 0-17.601-7.88-17.601-17.601s7.88-17.601 17.601-17.601h598.448c9.721 0 17.601 7.88 17.601 17.601 0 9.72-7.88 17.601-17.601 17.601z" fill="rgba(0, 0, 0, 0.1)" stroke="none"/>
  <path d="M539.26 193.928a155.592 155.592 0 0 0 76.39-21.826 141.586 141.586 0 0 0 67.959-80.685 71.02 71.02 0 0 0-5.879-55.145C653.3-5.796 587.84-12.15 528.664 21.821a141.586 141.586 0 0 0-67.959 80.685 71.024 71.024 0 0 0 5.949 55.145 80.3 80.3 0 0 0 72.606 36.277zM649.568 82.299a107.58 107.58 0 0 1-51.484 59.264c-39.691 22.882-84.487 22.495-99.73 0 2.623-.317 5.28-.528 8.149-.651a83.115 83.115 0 0 0 43.053-12.004 83.502 83.502 0 0 0 31.999-31.242 54.934 54.934 0 0 1 46.89-27.106 95.603 95.603 0 0 0 22.547-3.327 45.905 45.905 0 0 1-1.424 15.066zM546.09 52.377a122.095 122.095 0 0 1 59.229-17.021c3.691.049 7.374.366 11.018.95a81.122 81.122 0 0 0-32.475 11.177 83.36 83.36 0 0 0-31.964 31.295 49.166 49.166 0 0 1-19.907 19.696 49.073 49.073 0 0 1-26.983 7.287c-2.675.106-5.509.246-8.537.528a111.895 111.895 0 0 1 49.654-53.931l-.035.019z" fill="rgba(0, 0, 0, 0.1)" stroke="none"/>
  <path d="M633.252 285.842c-59.158-33.971-124.635-27.634-149.066 14.451a71.016 71.016 0 0 0-5.949 55.145 141.586 141.586 0 0 0 67.959 80.685 155.603 155.603 0 0 0 76.39 21.826 94.12 94.12 0 0 0 49.478-12.884l1.091.686 1.144-1.971a66.673 66.673 0 0 0 21.034-22.107 71.016 71.016 0 0 0 5.949-55.145 141.59 141.59 0 0 0-68.03-80.686zm-69.526 119.69a107.584 107.584 0 0 1-51.449-59.211 46.772 46.772 0 0 1-1.76-13.624 62.909 62.909 0 0 1 8.695 11.371 89.924 89.924 0 0 0 75.123 43.317 54.794 54.794 0 0 1 46.89 27.071 192.561 192.561 0 0 0 3.08 4.7 104.846 104.846 0 0 1-80.579-13.571v-.053zm104.782-13.765a81.05 81.05 0 0 0-29.5-27.511 83.19 83.19 0 0 0-43.106-12.075 54.864 54.864 0 0 1-46.943-27.124 88.015 88.015 0 0 0-17.601-21.122 101.786 101.786 0 0 1 84.328 12.427 107.648 107.648 0 0 1 51.484 59.282 44.997 44.997 0 0 1 1.338 16.176v-.053z" fill="rgba(0, 0, 0, 0.1)" stroke="none"/>
</svg>
</g></svg></g></g>
<!-- /image 59191 -->

<!-- image 73969 -->
<g id="transformed-73969" data-image="73969" transform="translate(-31.965895873961195, -42.965895873961216) rotate(287, 43.965895873961195, 43.965895873961216)"><g><svg version="1.1" width="87.93179174792239px" height="87.93179174792243px" viewBox="0 0 87.93179174792239 87.93179174792243"><g id="original-73969"><svg xmlns="http://www.w3.org/2000/svg" viewBox="0 0 1055.575 1055.575" xmlns:xlink="http://www.w3.org/1999/xlink" version="1.1" preserveAspectRatio="xMidYMid meet">
  <path d="M1037.966 897.813a156.784 156.784 0 0 0 17.601-71.057c0-126.167-157.92-228.818-352.028-228.818-155.896 0-288.258 66.269-334.427 157.708a156.79 156.79 0 0 0-17.601 71.11c0 126.167 157.92 228.818 352.028 228.818 155.896 0 288.258-66.269 334.427-157.709v-.052zM703.539 633.141c174.694 0 316.825 86.863 316.825 193.615a121.256 121.256 0 0 1-5.157 33.812 142.337 142.337 0 0 1-76.566-46.521c-28.514-27.37-60.848-58.401-123.667-58.401s-95.171 31.031-123.703 58.401c-27.177 26.103-50.639 48.615-99.307 48.615s-72.166-22.512-99.237-48.597a182.688 182.688 0 0 0-86.247-54.019c44.637-73.942 160.771-126.905 297.059-126.905zm0 387.231c-174.694 0-316.825-86.863-316.825-193.615a121.07 121.07 0 0 1 5.157-33.795 142.093 142.093 0 0 1 76.478 46.503c28.497 27.37 60.813 58.401 123.615 58.401s95.153-31.031 123.685-58.401c27.177-26.103 50.639-48.615 99.325-48.615s72.166 22.512 99.307 48.615a182.67 182.67 0 0 0 86.247 54.001c-44.567 73.943-160.701 126.906-296.989 126.906z" fill="rgba(0, 0, 0, 0.1)" stroke="none"/>
  <path d="M580.752 94.961c.44-.422.845-.739 1.285-1.179l-3.168-3.168a153.877 153.877 0 0 0-29.641-42.419c-89.785-89.802-275.163-50.463-413.334 87.708S-41.581 459.468 48.186 549.235a177.137 177.137 0 0 0 128.772 48.175c89.415 0 196.59-47.911 284.562-135.883C578.851 344.179 624.562 192.948 580.752 94.961zm-419.97 65.829C242.259 79.313 340.317 34.324 419.664 34.324A143.752 143.752 0 0 1 524.34 73.047a121.408 121.408 0 0 1 11.793 13.923 164.794 164.794 0 0 1-75.492 29.166 192.188 192.188 0 0 0-114.744 56.923 192.188 192.188 0 0 0-56.87 114.743 156.464 156.464 0 0 1-47.242 96.456 156.265 156.265 0 0 1-96.403 47.207 193.873 193.873 0 0 0-101.771 45.024C13.758 391.808 58.342 263.248 160.782 160.79zM73.075 524.347a121.218 121.218 0 0 1-12.955-15.296 157.091 157.091 0 0 1 91.862-43.018 191.996 191.996 0 0 0 114.691-56.888 192.205 192.205 0 0 0 56.923-114.726 156.655 156.655 0 0 1 47.277-96.473 156.494 156.494 0 0 1 96.473-47.242 202.64 202.64 0 0 0 85.455-32.334c31.682 84.663-12.638 214.737-116.169 318.268C312.225 560.976 149.095 600.42 73.075 524.347z" fill="rgba(0, 0, 0, 0.1)" stroke="none"/>
</svg>
</g></svg></g></g>
<!-- /image 73969 -->
</defs><rect x="0" y="0" width="250" height="250" fill="rgba(255, 255, 255, 1)"></rect><use xlink:href="#transformed-58110" transform="translate(-250, -250)"></use><use xlink:href="#transformed-58110" transform="translate(0, -250)"></use><use xlink:href="#transformed-58110" transform="translate(250, -250)"></use><use xlink:href="#transformed-58110" transform="translate(-250, 0)"></use><use xlink:href="#transformed-58110" transform="translate(0, 0)"></use><use xlink:href="#transformed-58110" transform="translate(250, 0)"></use><use xlink:href="#transformed-58110" transform="translate(-250, 250)"></use><use xlink:href="#transformed-58110" transform="translate(0, 250)"></use><use xlink:href="#transformed-58110" transform="translate(250, 250)"></use><use xlink:href="#transformed-92707" transform="translate(-250, -250)"></use><use xlink:href="#transformed-92707" transform="translate(0, -250)"></use><use xlink:href="#transformed-92707" transform="translate(250, -250)"></use><use xlink:href="#transformed-92707" transform="translate(-250, 0)"></use><use xlink:href="#transformed-92707" transform="translate(0, 0)"></use><use xlink:href="#transformed-92707" transform="translate(250, 0)"></use><use xlink:href="#transformed-92707" transform="translate(-250, 250)"></use><use xlink:href="#transformed-92707" transform="translate(0, 250)"></use><use xlink:href="#transformed-92707" transform="translate(250, 250)"></use><use xlink:href="#transformed-59191" transform="translate(-250, -250)"></use><use xlink:href="#transformed-59191" transform="translate(0, -250)"></use><use xlink:href="#transformed-59191" transform="translate(250, -250)"></use><use xlink:href="#transformed-59191" transform="translate(-250, 0)"></use><use xlink:href="#transformed-59191" transform="translate(0, 0)"></use><use xlink:href="#transformed-59191" transform="translate(250, 0)"></use><use xlink:href="#transformed-59191" transform="translate(-250, 250)"></use><use xlink:href="#transformed-59191" transform="translate(0, 250)"></use><use xlink:href="#transformed-59191" transform="translate(250, 250)"></use><use xlink:href="#transformed-73969" transform="translate(-250, -250)"></use><use xlink:href="#transformed-73969" transform="translate(0, -250)"></use><use xlink:href="#transformed-73969" transform="translate(250, -250)"></use><use xlink:href="#transformed-73969" transform="translate(-250, 0)"></use><use xlink:href="#transformed-73969" transform="translate(0, 0)"></use><use xlink:href="#transformed-73969" transform="translate(250, 0)"></use><use xlink:href="#transformed-73969" transform="translate(-250, 250)"></use><use xlink:href="#transformed-73969" transform="translate(0, 250)"></use><use xlink:href="#transformed-73969" transform="translate(250, 250)"></use></svg>